<?xml version="1.0" encoding="utf-8"?>
<!-- Generator: Adobe Illustrator 28.2.0, SVG Export Plug-In . SVG Version: 6.00 Build 0)  -->
<svg version="1.1" id="Layer_1" xmlns="http://www.w3.org/2000/svg" xmlns:xlink="http://www.w3.org/1999/xlink" x="0px" y="0px"
	 viewBox="0 0 300 300" style="enable-background:new 0 0 300 300;" xml:space="preserve">
<style type="text/css">
	.st0{fill:#FFFFFF;}
	.st1{fill:#51B6CD;}
	.st2{fill:#DA2867;}
</style>
<g>
	<path class="st0" d="M36.9,247.3H19.4l-2.9,6.3H9.6l15.1-33.6h6.9l15.1,33.6h-6.9L36.9,247.3z M28.1,227.1l-6.2,14.3h12.5
		L28.1,227.1z"/>
	<path class="st0" d="M71.6,220H78v33.7H74v0L56.4,231v22.7H50v-33.6h5.1l16.5,20.8V220z"/>
	<path class="st0" d="M107.6,247.3H90.1l-2.9,6.3h-6.9l15.1-33.6h6.9l15.1,33.6h-6.9L107.6,247.3z M98.8,227.1l-6.2,14.3h12.5
		L98.8,227.1z"/>
	<path class="st0" d="M127.1,220.1v27.7h17.3v5.9h-23.6v-33.6H127.1z"/>
	<path class="st0" d="M157,233.9l8.9-13.9h7.6v0.3l-13.4,19.4v13.9h-6.3v-13.9l-12.9-19.4v-0.3h7.5L157,233.9z"/>
	<path class="st0" d="M185,225.8h-10.7v-5.8c9.7,0,17.9,0,27.7,0v5.8h-10.7v27.8H185V225.8z"/>
	<path class="st0" d="M205.9,253.7v-33.6h6.3v33.6H205.9z"/>
	<path class="st0" d="M247.7,249.4c-3.5,3.4-7.9,5-12.8,5c-12.5,0-17.8-8.6-17.8-17.3c0-8.8,5.7-17.7,17.8-17.7
		c4.6,0,8.9,1.7,12.3,5.1l-4.2,4.1c-2.2-2.2-5.2-3.2-8.1-3.2c-8.1,0-11.6,6-11.6,11.7c0,5.6,3.3,11.4,11.6,11.4
		c2.9,0,6.2-1.2,8.4-3.4L247.7,249.4z"/>
	<path class="st0" d="M272.6,228.2c-1.2-1.9-4.3-3.7-8-3.7c-4.7,0-7,2-7,4.5c0,2.9,3.5,3.7,7.5,4.2c7,0.9,13.5,2.7,13.5,10.7
		c0,7.5-6.6,10.7-14.1,10.7c-6.9,0-12.1-2.1-14.6-8.3l5.3-2.7c1.5,3.7,5.4,5.3,9.5,5.3c4,0,7.7-1.4,7.7-5c0-3.2-3.3-4.5-7.8-4.9
		c-6.9-0.8-13.2-2.6-13.2-10.2c0-6.9,6.8-9.7,13-9.8c5.2,0,10.7,1.5,13.2,6.7L272.6,228.2z"/>
</g>
<g>
	<path class="st1" d="M266.9,24c0,62.9,0,124.9,0,187.3c3.7,0,6.9,0,10.3,0c0-62.8,0-124.9,0-187.3C273.5,24,270.5,24,266.9,24z"/>
	<path class="st1" d="M249.2,160c-59.6,0-119.3,0-179.8,0c-7.3,17.2-14.6,34.4-22.3,52.4c5.1,0,8.7,0,12.9,0l16.7-39.3h82.6l0,0
		l17.3,39.2c14.4,0,28.2,0,43.2,0c-6.5-15.3-12.7-30-19.3-45.6c13.4,0,25.5,0,38.4,0c0,15.1,0,29.7,0,44.8c4.2,0,7.6,0,10.7,0
		c0-0.1,0.1-0.2,0.1-0.3v-49.8C249.6,160.8,249.4,160.3,249.2,160z"/>
	<path class="st2" d="M238.5,24.3v114.8h-50c-16.9-39-33.4-77.2-49.8-115.2H98.3C71.4,86.5,44.6,149,17.5,212.4h13.1
		c9.5-22.3,19.1-44.6,28.8-67.3h190.3c0,0,0-0.1,0.1-0.1V24.3H238.5z M94.8,133l23.4-53.8l23.4,53.8C141.6,133,94.8,133,94.8,133z"
		/>
</g>
</svg>
